# 3ds Max Wavefront OBJ Exporter v0.99 - (c)2007 guruware
# File Created: 05.05.2025 00:34:31

mtllib cilindro.mtl

#
# object Cylinder
#

v  0.0372 0.0372 -0.0000
v  -0.0372 0.0372 -0.0000
v  -0.0372 0.0365 0.0073
v  0.0372 0.0365 0.0073
v  -0.0372 0.0343 0.0142
v  0.0372 0.0343 0.0142
v  -0.0372 0.0309 0.0207
v  0.0372 0.0309 0.0207
v  -0.0372 0.0263 0.0263
v  0.0372 0.0263 0.0263
v  -0.0372 0.0207 0.0309
v  0.0372 0.0207 0.0309
v  -0.0372 0.0142 0.0343
v  0.0372 0.0142 0.0343
v  -0.0372 0.0073 0.0365
v  0.0372 0.0073 0.0365
v  -0.0372 -0.0000 0.0372
v  0.0372 -0.0000 0.0372
v  -0.0372 -0.0073 0.0365
v  0.0372 -0.0073 0.0365
v  -0.0372 -0.0142 0.0343
v  0.0372 -0.0142 0.0343
v  -0.0372 -0.0207 0.0309
v  0.0372 -0.0207 0.0309
v  -0.0372 -0.0263 0.0263
v  0.0372 -0.0263 0.0263
v  -0.0372 -0.0309 0.0207
v  0.0372 -0.0309 0.0207
v  -0.0372 -0.0343 0.0142
v  0.0372 -0.0343 0.0142
v  -0.0372 -0.0365 0.0073
v  0.0372 -0.0365 0.0073
v  -0.0372 -0.0372 -0.0000
v  0.0372 -0.0372 -0.0000
v  -0.0372 -0.0365 -0.0073
v  0.0372 -0.0365 -0.0073
v  -0.0372 -0.0343 -0.0142
v  0.0372 -0.0343 -0.0142
v  -0.0372 -0.0309 -0.0207
v  0.0372 -0.0309 -0.0207
v  -0.0372 -0.0263 -0.0263
v  0.0372 -0.0263 -0.0263
v  -0.0372 -0.0207 -0.0309
v  0.0372 -0.0207 -0.0309
v  -0.0372 -0.0142 -0.0343
v  0.0372 -0.0142 -0.0343
v  -0.0372 -0.0073 -0.0365
v  0.0372 -0.0073 -0.0365
v  -0.0372 0.0000 -0.0372
v  0.0372 0.0000 -0.0372
v  -0.0372 0.0073 -0.0365
v  0.0372 0.0073 -0.0365
v  -0.0372 0.0142 -0.0343
v  0.0372 0.0142 -0.0343
v  -0.0372 0.0207 -0.0309
v  0.0372 0.0207 -0.0309
v  -0.0372 0.0263 -0.0263
v  0.0372 0.0263 -0.0263
v  -0.0372 0.0309 -0.0207
v  0.0372 0.0309 -0.0207
v  -0.0372 0.0343 -0.0142
v  0.0372 0.0343 -0.0142
v  -0.0372 0.0365 -0.0073
v  0.0372 0.0365 -0.0073
# 64 vertices

vn 0.0000 1.0000 0.0000
vn 0.0000 0.9808 0.1951
vn 0.0000 0.9239 0.3827
vn 0.0000 0.8315 0.5556
vn 0.0000 0.7071 0.7071
vn 0.0000 0.5556 0.8315
vn -0.0000 0.3827 0.9239
vn -0.0000 0.1951 0.9808
vn -0.0000 -0.0000 1.0000
vn -0.0000 -0.1951 0.9808
vn -0.0000 -0.3827 0.9239
vn -0.0000 -0.5556 0.8315
vn -0.0000 -0.7071 0.7071
vn -0.0000 -0.8315 0.5556
vn -0.0000 -0.9239 0.3827
vn -0.0000 -0.9808 0.1951
vn -0.0000 -1.0000 -0.0000
vn -0.0000 -0.9808 -0.1951
vn -0.0000 -0.9239 -0.3827
vn -0.0000 -0.8315 -0.5556
vn -0.0000 -0.7071 -0.7071
vn -0.0000 -0.5556 -0.8315
vn 0.0000 -0.3827 -0.9239
vn 0.0000 -0.1951 -0.9808
vn 0.0000 0.0000 -1.0000
vn 0.0000 0.1951 -0.9808
vn 0.0000 0.3827 -0.9239
vn 0.0000 0.5556 -0.8315
vn 0.0000 0.7071 -0.7071
vn 0.0000 0.8315 -0.5556
vn 0.0000 0.9239 -0.3827
vn -1.0000 0.0000 -0.0000
vn 0.0000 0.9808 -0.1951
vn 1.0000 -0.0000 0.0000
# 34 vertex normals

vt 0.6670 0.3715 0.0000
vt 0.3330 0.3715 0.0000
vt 0.3330 0.3394 0.0000
vt 0.6670 0.3394 0.0000
vt 0.3330 0.3091 0.0000
vt 0.6670 0.3091 0.0000
vt 0.3330 0.2819 0.0000
vt 0.6670 0.2819 0.0000
vt 0.3330 0.2588 0.0000
vt 0.6670 0.2588 0.0000
vt 0.6670 0.2584 0.0000
vt 0.3330 0.2584 0.0000
vt 0.3330 0.2352 0.0000
vt 0.6670 0.2352 0.0000
vt 0.3330 0.2080 0.0000
vt 0.6670 0.2080 0.0000
vt 0.3330 0.1778 0.0000
vt 0.6670 0.1778 0.0000
vt 0.3330 0.1457 0.0000
vt 0.6670 0.1457 0.0000
vt 0.3330 0.1129 0.0000
vt 0.6670 0.1129 0.0000
vt 0.3330 0.0808 0.0000
vt 0.6670 0.0808 0.0000
vt 0.3330 0.0506 0.0000
vt 0.6670 0.0506 0.0000
vt 0.3330 0.0233 0.0000
vt 0.6670 0.0233 0.0000
vt 0.3330 0.0002 0.0000
vt 0.6670 0.0002 0.0000
vt 0.2125 0.9998 0.0000
vt 0.2125 0.6658 0.0000
vt 0.2397 0.6658 0.0000
vt 0.2397 0.9998 0.0000
vt 0.2699 0.6658 0.0000
vt 0.2699 0.9998 0.0000
vt 0.3020 0.6658 0.0000
vt 0.3020 0.9998 0.0000
vt 0.3348 0.6658 0.0000
vt 0.3348 0.9998 0.0000
vt 0.3669 0.6658 0.0000
vt 0.3669 0.9998 0.0000
vt 0.3971 0.6658 0.0000
vt 0.3971 0.9998 0.0000
vt 0.4244 0.6658 0.0000
vt 0.4244 0.9998 0.0000
vt 0.0002 0.9998 0.0000
vt 0.0002 0.6658 0.0000
vt 0.0274 0.6658 0.0000
vt 0.0274 0.9998 0.0000
vt 0.0577 0.6658 0.0000
vt 0.0577 0.9998 0.0000
vt 0.0898 0.6658 0.0000
vt 0.0898 0.9998 0.0000
vt 0.1225 0.6658 0.0000
vt 0.1225 0.9998 0.0000
vt 0.1546 0.6658 0.0000
vt 0.1546 0.9998 0.0000
vt 0.1849 0.6658 0.0000
vt 0.1849 0.9998 0.0000
vt 0.2121 0.6658 0.0000
vt 0.2121 0.9998 0.0000
vt 0.6670 0.5170 0.0000
vt 0.3330 0.5170 0.0000
vt 0.3330 0.4938 0.0000
vt 0.6670 0.4938 0.0000
vt 0.3330 0.4666 0.0000
vt 0.6670 0.4666 0.0000
vt 0.3330 0.4364 0.0000
vt 0.6670 0.4364 0.0000
vt 0.3326 0.1500 0.0000
vt 0.3326 0.1828 0.0000
vt 0.3262 0.2149 0.0000
vt 0.3137 0.2451 0.0000
vt 0.2955 0.2724 0.0000
vt 0.2724 0.2955 0.0000
vt 0.2451 0.3137 0.0000
vt 0.2149 0.3262 0.0000
vt 0.1828 0.3326 0.0000
vt 0.1500 0.3326 0.0000
vt 0.1179 0.3262 0.0000
vt 0.0877 0.3137 0.0000
vt 0.0604 0.2955 0.0000
vt 0.0373 0.2724 0.0000
vt 0.0191 0.2451 0.0000
vt 0.0066 0.2149 0.0000
vt 0.0002 0.1828 0.0000
vt 0.0002 0.1500 0.0000
vt 0.0066 0.1179 0.0000
vt 0.0191 0.0877 0.0000
vt 0.0373 0.0604 0.0000
vt 0.0604 0.0373 0.0000
vt 0.0877 0.0191 0.0000
vt 0.1179 0.0066 0.0000
vt 0.1500 0.0002 0.0000
vt 0.1828 0.0002 0.0000
vt 0.2149 0.0066 0.0000
vt 0.2451 0.0191 0.0000
vt 0.2724 0.0373 0.0000
vt 0.2955 0.0604 0.0000
vt 0.3137 0.0877 0.0000
vt 0.3262 0.1179 0.0000
vt 0.3330 0.4042 0.0000
vt 0.6670 0.4042 0.0000
vt 0.3326 0.5156 0.0000
vt 0.3262 0.5477 0.0000
vt 0.3137 0.5779 0.0000
vt 0.2955 0.6052 0.0000
vt 0.2724 0.6283 0.0000
vt 0.2451 0.6465 0.0000
vt 0.2149 0.6590 0.0000
vt 0.1828 0.6654 0.0000
vt 0.1500 0.6654 0.0000
vt 0.1179 0.6590 0.0000
vt 0.0877 0.6465 0.0000
vt 0.0604 0.6283 0.0000
vt 0.0373 0.6052 0.0000
vt 0.0191 0.5779 0.0000
vt 0.0066 0.5477 0.0000
vt 0.0002 0.5156 0.0000
vt 0.0002 0.4828 0.0000
vt 0.0066 0.4507 0.0000
vt 0.0191 0.4205 0.0000
vt 0.0373 0.3932 0.0000
vt 0.0604 0.3701 0.0000
vt 0.0877 0.3519 0.0000
vt 0.1179 0.3394 0.0000
vt 0.1500 0.3330 0.0000
vt 0.1828 0.3330 0.0000
vt 0.2149 0.3394 0.0000
vt 0.2451 0.3519 0.0000
vt 0.2724 0.3701 0.0000
vt 0.2955 0.3932 0.0000
vt 0.3137 0.4205 0.0000
vt 0.3262 0.4507 0.0000
vt 0.3326 0.4828 0.0000
# 136 texture coords

o Cylinder
g Cylinder
usemtl 01___Default
s off
f 1/1/1 2/2/1 3/3/2 
f 3/3/2 4/4/2 1/1/1 
f 4/4/2 3/3/2 5/5/3 
f 5/5/3 6/6/3 4/4/2 
f 6/6/3 5/5/3 7/7/4 
f 7/7/4 8/8/4 6/6/3 
f 8/8/4 7/7/4 9/9/5 
f 9/9/5 10/10/5 8/8/4 
f 10/11/5 9/12/5 11/13/6 
f 11/13/6 12/14/6 10/11/5 
f 12/14/6 11/13/6 13/15/7 
f 13/15/7 14/16/7 12/14/6 
f 14/16/7 13/15/7 15/17/8 
f 15/17/8 16/18/8 14/16/7 
f 16/18/8 15/17/8 17/19/9 
f 17/19/9 18/20/9 16/18/8 
f 18/20/9 17/19/9 19/21/10 
f 19/21/10 20/22/10 18/20/9 
f 20/22/10 19/21/10 21/23/11 
f 21/23/11 22/24/11 20/22/10 
f 22/24/11 21/23/11 23/25/12 
f 23/25/12 24/26/12 22/24/11 
f 24/26/12 23/25/12 25/27/13 
f 25/27/13 26/28/13 24/26/12 
f 26/28/13 25/27/13 27/29/14 
f 27/29/14 28/30/14 26/28/13 
f 28/31/14 27/32/14 29/33/15 
f 29/33/15 30/34/15 28/31/14 
f 30/34/15 29/33/15 31/35/16 
f 31/35/16 32/36/16 30/34/15 
f 32/36/16 31/35/16 33/37/17 
f 33/37/17 34/38/17 32/36/16 
f 34/38/17 33/37/17 35/39/18 
f 35/39/18 36/40/18 34/38/17 
f 36/40/18 35/39/18 37/41/19 
f 37/41/19 38/42/19 36/40/18 
f 38/42/19 37/41/19 39/43/20 
f 39/43/20 40/44/20 38/42/19 
f 40/44/20 39/43/20 41/45/21 
f 41/45/21 42/46/21 40/44/20 
f 42/47/21 41/48/21 43/49/22 
f 43/49/22 44/50/22 42/47/21 
f 44/50/22 43/49/22 45/51/23 
f 45/51/23 46/52/23 44/50/22 
f 46/52/23 45/51/23 47/53/24 
f 47/53/24 48/54/24 46/52/23 
f 48/54/24 47/53/24 49/55/25 
f 49/55/25 50/56/25 48/54/24 
f 50/56/25 49/55/25 51/57/26 
f 51/57/26 52/58/26 50/56/25 
f 52/58/26 51/57/26 53/59/27 
f 53/59/27 54/60/27 52/58/26 
f 54/60/27 53/59/27 55/61/28 
f 55/61/28 56/62/28 54/60/27 
f 56/63/28 55/64/28 57/65/29 
f 57/65/29 58/66/29 56/63/28 
f 58/66/29 57/65/29 59/67/30 
f 59/67/30 60/68/30 58/66/29 
f 60/68/30 59/67/30 61/69/31 
f 61/69/31 62/70/31 60/68/30 
f 3/71/32 2/72/32 63/73/32 
f 3/71/32 63/73/32 61/74/32 
f 3/71/32 61/74/32 59/75/32 
f 3/71/32 59/75/32 57/76/32 
f 3/71/32 57/76/32 55/77/32 
f 3/71/32 55/77/32 53/78/32 
f 3/71/32 53/78/32 51/79/32 
f 3/71/32 51/79/32 49/80/32 
f 3/71/32 49/80/32 47/81/32 
f 3/71/32 47/81/32 45/82/32 
f 3/71/32 45/82/32 43/83/32 
f 3/71/32 43/83/32 41/84/32 
f 3/71/32 41/84/32 39/85/32 
f 3/71/32 39/85/32 37/86/32 
f 3/71/32 37/86/32 35/87/32 
f 3/71/32 35/87/32 33/88/32 
f 3/71/32 33/88/32 31/89/32 
f 3/71/32 31/89/32 29/90/32 
f 3/71/32 29/90/32 27/91/32 
f 3/71/32 27/91/32 25/92/32 
f 3/71/32 25/92/32 23/93/32 
f 3/71/32 23/93/32 21/94/32 
f 3/71/32 21/94/32 19/95/32 
f 3/71/32 19/95/32 17/96/32 
f 3/71/32 17/96/32 15/97/32 
f 3/71/32 15/97/32 13/98/32 
f 3/71/32 13/98/32 11/99/32 
f 3/71/32 11/99/32 9/100/32 
f 3/71/32 9/100/32 7/101/32 
f 3/71/32 7/101/32 5/102/32 
f 62/70/31 61/69/31 63/103/33 
f 63/103/33 64/104/33 62/70/31 
f 64/104/33 63/103/33 2/2/1 
f 2/2/1 1/1/1 64/104/33 
f 1/105/34 4/106/34 6/107/34 
f 1/105/34 6/107/34 8/108/34 
f 1/105/34 8/108/34 10/109/34 
f 1/105/34 10/109/34 12/110/34 
f 1/105/34 12/110/34 14/111/34 
f 1/105/34 14/111/34 16/112/34 
f 1/105/34 16/112/34 18/113/34 
f 1/105/34 18/113/34 20/114/34 
f 1/105/34 20/114/34 22/115/34 
f 1/105/34 22/115/34 24/116/34 
f 1/105/34 24/116/34 26/117/34 
f 1/105/34 26/117/34 28/118/34 
f 1/105/34 28/118/34 30/119/34 
f 1/105/34 30/119/34 32/120/34 
f 1/105/34 32/120/34 34/121/34 
f 1/105/34 34/121/34 36/122/34 
f 1/105/34 36/122/34 38/123/34 
f 1/105/34 38/123/34 40/124/34 
f 1/105/34 40/124/34 42/125/34 
f 1/105/34 42/125/34 44/126/34 
f 1/105/34 44/126/34 46/127/34 
f 1/105/34 46/127/34 48/128/34 
f 1/105/34 48/128/34 50/129/34 
f 1/105/34 50/129/34 52/130/34 
f 1/105/34 52/130/34 54/131/34 
f 1/105/34 54/131/34 56/132/34 
f 1/105/34 56/132/34 58/133/34 
f 1/105/34 58/133/34 60/134/34 
f 1/105/34 60/134/34 62/135/34 
f 1/105/34 62/135/34 64/136/34 
# 124 faces

