# 3ds Max Wavefront OBJ Exporter v0.99 - (c)2007 guruware
# File Created: 05.05.2025 00:34:19

mtllib tubo2.mtl

#
# object Cube
#

v  0.0384 0.0309 -0.1196
v  0.0384 -0.0253 -0.1199
v  0.0384 -0.0282 0.4311
v  0.0384 0.0279 0.4314
v  -0.0310 0.0309 -0.1270
v  -0.0310 -0.0253 -0.1273
v  0.0310 -0.0253 -0.1273
v  0.0310 0.0309 -0.1270
v  -0.0310 -0.0320 -0.1200
v  -0.0310 -0.0349 0.4311
v  0.0310 -0.0349 0.4311
v  0.0310 -0.0320 -0.1200
v  0.0310 0.0279 0.4388
v  0.0310 -0.0283 0.4385
v  -0.0310 -0.0283 0.4385
v  -0.0310 0.0279 0.4388
v  -0.0384 0.0279 0.4314
v  -0.0384 -0.0282 0.4311
v  -0.0384 -0.0253 -0.1199
v  -0.0384 0.0309 -0.1196
v  0.0310 0.0346 0.4315
v  0.0339 0.0341 0.4315
v  0.0339 0.0335 0.4344
v  0.0310 0.0341 0.4343
v  0.0362 0.0326 0.4315
v  0.0359 0.0323 0.4342
v  0.0338 0.0323 0.4363
v  0.0310 0.0326 0.4367
v  0.0353 0.0317 0.4357
v  0.0378 0.0279 0.4343
v  0.0372 0.0305 0.4343
v  0.0378 0.0305 0.4314
v  0.0362 0.0279 0.4366
v  0.0359 0.0304 0.4363
v  0.0310 0.0304 0.4383
v  0.0339 0.0305 0.4376
v  0.0339 0.0279 0.4382
v  0.0378 -0.0308 0.4311
v  0.0372 -0.0309 0.4340
v  0.0378 -0.0283 0.4340
v  0.0362 -0.0330 0.4311
v  0.0359 -0.0326 0.4339
v  0.0359 -0.0308 0.4360
v  0.0362 -0.0283 0.4363
v  0.0353 -0.0321 0.4354
v  0.0310 -0.0344 0.4339
v  0.0339 -0.0338 0.4340
v  0.0339 -0.0344 0.4311
v  0.0310 -0.0330 0.4363
v  0.0338 -0.0327 0.4360
v  0.0339 -0.0283 0.4379
v  0.0339 -0.0309 0.4373
v  0.0310 -0.0308 0.4379
v  -0.0310 0.0346 0.4315
v  -0.0310 0.0341 0.4343
v  -0.0339 0.0335 0.4344
v  -0.0339 0.0341 0.4315
v  -0.0310 0.0326 0.4367
v  -0.0338 0.0323 0.4363
v  -0.0359 0.0323 0.4342
v  -0.0362 0.0326 0.4315
v  -0.0353 0.0317 0.4357
v  -0.0339 0.0279 0.4382
v  -0.0339 0.0305 0.4376
v  -0.0310 0.0304 0.4383
v  -0.0362 0.0279 0.4366
v  -0.0359 0.0304 0.4363
v  -0.0378 0.0305 0.4314
v  -0.0372 0.0305 0.4343
v  -0.0378 0.0279 0.4343
v  -0.0339 -0.0344 0.4311
v  -0.0339 -0.0338 0.4340
v  -0.0310 -0.0344 0.4339
v  -0.0362 -0.0330 0.4311
v  -0.0359 -0.0326 0.4339
v  -0.0338 -0.0327 0.4360
v  -0.0310 -0.0330 0.4363
v  -0.0353 -0.0321 0.4354
v  -0.0378 -0.0283 0.4340
v  -0.0372 -0.0309 0.4340
v  -0.0378 -0.0308 0.4311
v  -0.0362 -0.0283 0.4363
v  -0.0359 -0.0308 0.4360
v  -0.0310 -0.0308 0.4379
v  -0.0339 -0.0309 0.4373
v  -0.0339 -0.0283 0.4379
v  0.0310 0.0375 -0.1196
v  0.0310 0.0370 -0.1224
v  0.0339 0.0364 -0.1225
v  0.0339 0.0370 -0.1196
v  0.0310 0.0356 -0.1248
v  0.0338 0.0353 -0.1244
v  0.0359 0.0353 -0.1223
v  0.0362 0.0356 -0.1196
v  0.0353 0.0347 -0.1239
v  0.0339 0.0309 -0.1264
v  0.0339 0.0335 -0.1257
v  0.0310 0.0335 -0.1264
v  0.0362 0.0309 -0.1248
v  0.0359 0.0334 -0.1244
v  0.0378 0.0334 -0.1196
v  0.0372 0.0335 -0.1225
v  0.0378 0.0309 -0.1224
v  0.0339 -0.0315 -0.1200
v  0.0339 -0.0308 -0.1228
v  0.0310 -0.0315 -0.1228
v  0.0362 -0.0300 -0.1199
v  0.0359 -0.0297 -0.1227
v  0.0338 -0.0297 -0.1248
v  0.0310 -0.0300 -0.1252
v  0.0353 -0.0291 -0.1242
v  0.0378 -0.0253 -0.1227
v  0.0372 -0.0279 -0.1228
v  0.0378 -0.0279 -0.1199
v  0.0362 -0.0253 -0.1251
v  0.0359 -0.0278 -0.1248
v  0.0310 -0.0278 -0.1267
v  0.0339 -0.0279 -0.1261
v  0.0339 -0.0253 -0.1267
v  -0.0310 0.0375 -0.1196
v  -0.0339 0.0370 -0.1196
v  -0.0339 0.0364 -0.1225
v  -0.0310 0.0370 -0.1224
v  -0.0362 0.0356 -0.1196
v  -0.0359 0.0353 -0.1223
v  -0.0338 0.0353 -0.1244
v  -0.0310 0.0356 -0.1248
v  -0.0353 0.0347 -0.1239
v  -0.0378 0.0309 -0.1224
v  -0.0372 0.0335 -0.1225
v  -0.0378 0.0334 -0.1196
v  -0.0362 0.0309 -0.1248
v  -0.0359 0.0334 -0.1244
v  -0.0310 0.0335 -0.1264
v  -0.0339 0.0335 -0.1257
v  -0.0339 0.0309 -0.1264
v  -0.0310 -0.0315 -0.1228
v  -0.0339 -0.0308 -0.1228
v  -0.0339 -0.0315 -0.1200
v  -0.0310 -0.0300 -0.1252
v  -0.0338 -0.0297 -0.1248
v  -0.0359 -0.0297 -0.1227
v  -0.0362 -0.0300 -0.1199
v  -0.0353 -0.0291 -0.1242
v  -0.0339 -0.0253 -0.1267
v  -0.0339 -0.0279 -0.1261
v  -0.0310 -0.0278 -0.1267
v  -0.0362 -0.0253 -0.1251
v  -0.0359 -0.0278 -0.1248
v  -0.0378 -0.0279 -0.1199
v  -0.0372 -0.0279 -0.1228
v  -0.0378 -0.0253 -0.1227
# 152 vertices

vn -0.9888 -0.1110 0.0996
vn -0.9888 0.1099 0.1008
vn -0.9888 0.1110 -0.0996
vn -0.9888 -0.1099 -0.1008
vn 0.1002 -0.1158 0.9882
vn 0.1002 0.1052 0.9894
vn -0.1002 0.1052 0.9894
vn -0.1002 -0.1158 0.9882
vn 0.0913 0.9911 0.0966
vn 0.0913 0.9921 -0.0860
vn -0.0913 0.9921 -0.0860
vn -0.0913 0.9911 0.0966
vn -0.1002 -0.1052 -0.9894
vn -0.1002 0.1158 -0.9882
vn 0.1002 0.1158 -0.9882
vn 0.1002 -0.1052 -0.9894
vn 0.9888 -0.1099 -0.1008
vn 0.9888 0.1110 -0.0996
vn 0.9888 0.1099 0.1008
vn 0.9888 -0.1110 0.0996
vn -0.0913 -0.9911 -0.0966
vn -0.3508 -0.9316 -0.0953
vn -0.3430 -0.8727 -0.3476
vn -0.0903 -0.9302 -0.3558
vn -0.6719 -0.7350 -0.0914
vn -0.6387 -0.6978 -0.3241
vn -0.3204 -0.6961 -0.6425
vn -0.0874 -0.7319 -0.6758
vn -0.5572 -0.6126 -0.5605
vn -0.9194 -0.1060 -0.3788
vn -0.8432 -0.3947 -0.3651
vn -0.9071 -0.4090 -0.0989
vn -0.7035 -0.0974 -0.7040
vn -0.6587 -0.3600 -0.6607
vn -0.0967 -0.4047 -0.9093
vn -0.3630 -0.3921 -0.8453
vn -0.3782 -0.1031 -0.9199
vn -0.9071 0.4101 -0.0945
vn -0.8432 0.3986 -0.3609
vn -0.9194 0.1100 -0.3777
vn -0.6719 0.7359 -0.0835
vn -0.6387 0.7013 -0.3166
vn -0.6587 0.3671 -0.6568
vn -0.7035 0.1049 -0.7029
vn -0.5572 0.6186 -0.5539
vn -0.0903 0.9339 -0.3459
vn -0.3430 0.8763 -0.3383
vn -0.3509 0.9325 -0.0853
vn -0.0874 0.7391 -0.6679
vn -0.3204 0.7030 -0.6350
vn -0.3782 0.1129 -0.9188
vn -0.3630 0.4011 -0.8410
vn -0.0967 0.4144 -0.9049
vn 0.0913 -0.9911 -0.0966
vn 0.0903 -0.9302 -0.3558
vn 0.3430 -0.8727 -0.3476
vn 0.3509 -0.9316 -0.0953
vn 0.0874 -0.7319 -0.6758
vn 0.3204 -0.6961 -0.6425
vn 0.6387 -0.6978 -0.3241
vn 0.6719 -0.7350 -0.0914
vn 0.5572 -0.6126 -0.5605
vn 0.3782 -0.1031 -0.9199
vn 0.3630 -0.3921 -0.8453
vn 0.0967 -0.4047 -0.9093
vn 0.7035 -0.0974 -0.7040
vn 0.6587 -0.3600 -0.6607
vn 0.9071 -0.4090 -0.0989
vn 0.8432 -0.3947 -0.3651
vn 0.9194 -0.1060 -0.3788
vn 0.3508 0.9325 -0.0853
vn 0.3430 0.8763 -0.3383
vn 0.0903 0.9339 -0.3459
vn 0.6719 0.7359 -0.0835
vn 0.6387 0.7013 -0.3166
vn 0.3204 0.7030 -0.6350
vn 0.0874 0.7391 -0.6679
vn 0.5572 0.6186 -0.5539
vn 0.9194 0.1100 -0.3777
vn 0.8432 0.3986 -0.3609
vn 0.9071 0.4101 -0.0945
vn 0.7035 0.1049 -0.7029
vn 0.6587 0.3671 -0.6568
vn 0.0967 0.4144 -0.9049
vn 0.3630 0.4011 -0.8410
vn 0.3782 0.1129 -0.9188
vn -0.0913 -0.9921 0.0860
vn -0.0903 -0.9339 0.3459
vn -0.3430 -0.8763 0.3383
vn -0.3508 -0.9325 0.0853
vn -0.0874 -0.7391 0.6679
vn -0.3204 -0.7030 0.6350
vn -0.6387 -0.7013 0.3166
vn -0.6719 -0.7359 0.0835
vn -0.5572 -0.6186 0.5539
vn -0.3782 -0.1129 0.9188
vn -0.3630 -0.4011 0.8410
vn -0.0967 -0.4144 0.9049
vn -0.7035 -0.1049 0.7029
vn -0.6587 -0.3671 0.6568
vn -0.9071 -0.4101 0.0945
vn -0.8432 -0.3986 0.3609
vn -0.9194 -0.1100 0.3777
vn -0.3508 0.9316 0.0953
vn -0.3430 0.8727 0.3476
vn -0.0903 0.9302 0.3558
vn -0.6719 0.7350 0.0914
vn -0.6387 0.6978 0.3241
vn -0.3204 0.6961 0.6425
vn -0.0874 0.7319 0.6758
vn -0.5572 0.6126 0.5605
vn -0.9194 0.1060 0.3788
vn -0.8432 0.3947 0.3651
vn -0.9071 0.4090 0.0989
vn -0.7035 0.0974 0.7040
vn -0.6587 0.3600 0.6607
vn -0.0967 0.4047 0.9093
vn -0.3630 0.3921 0.8453
vn -0.3783 0.1031 0.9199
vn 0.0913 -0.9921 0.0860
vn 0.3508 -0.9325 0.0853
vn 0.3430 -0.8763 0.3383
vn 0.0903 -0.9339 0.3459
vn 0.6719 -0.7359 0.0835
vn 0.6387 -0.7013 0.3166
vn 0.3204 -0.7030 0.6350
vn 0.0874 -0.7391 0.6679
vn 0.5572 -0.6186 0.5539
vn 0.9194 -0.1100 0.3777
vn 0.8432 -0.3986 0.3609
vn 0.9071 -0.4101 0.0945
vn 0.7035 -0.1049 0.7029
vn 0.6587 -0.3671 0.6568
vn 0.0967 -0.4144 0.9049
vn 0.3630 -0.4011 0.8410
vn 0.3782 -0.1129 0.9188
vn 0.0903 0.9302 0.3558
vn 0.3430 0.8727 0.3476
vn 0.3508 0.9316 0.0953
vn 0.0874 0.7319 0.6758
vn 0.3204 0.6961 0.6425
vn 0.6387 0.6978 0.3241
vn 0.6719 0.7350 0.0914
vn 0.5572 0.6126 0.5605
vn 0.3782 0.1031 0.9199
vn 0.3630 0.3921 0.8453
vn 0.0967 0.4047 0.9093
vn 0.7035 0.0974 0.7040
vn 0.6587 0.3600 0.6607
vn 0.9071 0.4090 0.0989
vn 0.8432 0.3947 0.3651
vn 0.9194 0.1060 0.3788
# 152 vertex normals

vt 0.2673 0.0094 0.0000
vt 0.3673 0.0094 0.0000
vt 0.3673 0.9906 0.0000
vt 0.2673 0.9906 0.0000
vt 0.5016 0.0094 0.0000
vt 0.6016 0.0094 0.0000
vt 0.6016 0.1199 0.0000
vt 0.5016 0.1199 0.0000
vt 0.0094 0.9906 0.0000
vt 0.0094 0.0094 0.0000
vt 0.1199 0.0094 0.0000
vt 0.1199 0.9906 0.0000
vt 0.5016 0.1388 0.0000
vt 0.6016 0.1388 0.0000
vt 0.6016 0.2493 0.0000
vt 0.5016 0.2493 0.0000
vt 0.4845 0.9906 0.0000
vt 0.3845 0.9906 0.0000
vt 0.3845 0.0094 0.0000
vt 0.4845 0.0094 0.0000
vt 0.2493 0.9906 0.0000
vt 0.2544 0.9906 0.0000
vt 0.2545 0.9957 0.0000
vt 0.2493 0.9956 0.0000
vt 0.2586 0.9906 0.0000
vt 0.2579 0.9954 0.0000
vt 0.2542 0.9992 0.0000
vt 0.2493 0.9998 0.0000
vt 0.2569 0.9981 0.0000
vt 0.2673 0.9956 0.0000
vt 0.2627 0.9957 0.0000
vt 0.2628 0.9906 0.0000
vt 0.2673 0.9998 0.0000
vt 0.2629 0.9992 0.0000
vt 0.2595 0.9954 0.0000
vt 0.2589 0.9906 0.0000
vt 0.2605 0.9981 0.0000
vt 0.4970 0.1388 0.0000
vt 0.4969 0.1337 0.0000
vt 0.5016 0.1338 0.0000
vt 0.4932 0.1388 0.0000
vt 0.4938 0.1339 0.0000
vt 0.4972 0.1302 0.0000
vt 0.5016 0.1296 0.0000
vt 0.4947 0.1313 0.0000
vt 0.3719 0.9906 0.0000
vt 0.3720 0.9957 0.0000
vt 0.3673 0.9956 0.0000
vt 0.3757 0.9906 0.0000
vt 0.3751 0.9954 0.0000
vt 0.3718 0.9992 0.0000
vt 0.3673 0.9998 0.0000
vt 0.3742 0.9981 0.0000
vt 0.1199 0.0044 0.0000
vt 0.1251 0.0043 0.0000
vt 0.1250 0.0094 0.0000
vt 0.1199 0.0002 0.0000
vt 0.1248 0.0008 0.0000
vt 0.1286 0.0046 0.0000
vt 0.1292 0.0094 0.0000
vt 0.1275 0.0019 0.0000
vt 0.6016 0.1338 0.0000
vt 0.6062 0.1337 0.0000
vt 0.6061 0.1388 0.0000
vt 0.6016 0.1296 0.0000
vt 0.6060 0.1302 0.0000
vt 0.6094 0.1339 0.0000
vt 0.6100 0.1388 0.0000
vt 0.6084 0.1313 0.0000
vt 0.1388 0.9906 0.0000
vt 0.1388 0.9956 0.0000
vt 0.1337 0.9957 0.0000
vt 0.1338 0.9906 0.0000
vt 0.1388 0.9998 0.0000
vt 0.1339 0.9992 0.0000
vt 0.1302 0.9954 0.0000
vt 0.1296 0.9906 0.0000
vt 0.1313 0.9981 0.0000
vt 0.5016 0.2544 0.0000
vt 0.4969 0.2545 0.0000
vt 0.4970 0.2493 0.0000
vt 0.5016 0.2586 0.0000
vt 0.4972 0.2579 0.0000
vt 0.4938 0.2542 0.0000
vt 0.4932 0.2493 0.0000
vt 0.4947 0.2569 0.0000
vt 0.4890 0.9906 0.0000
vt 0.4891 0.9957 0.0000
vt 0.4845 0.9956 0.0000
vt 0.4929 0.9906 0.0000
vt 0.4923 0.9954 0.0000
vt 0.4889 0.9992 0.0000
vt 0.4845 0.9998 0.0000
vt 0.4913 0.9981 0.0000
vt 0.0044 0.0094 0.0000
vt 0.0043 0.0043 0.0000
vt 0.0094 0.0044 0.0000
vt 0.0002 0.0094 0.0000
vt 0.0008 0.0046 0.0000
vt 0.0046 0.0008 0.0000
vt 0.0094 0.0002 0.0000
vt 0.0019 0.0019 0.0000
vt 0.3845 0.9956 0.0000
vt 0.3798 0.9957 0.0000
vt 0.3799 0.9906 0.0000
vt 0.3845 0.9998 0.0000
vt 0.3800 0.9992 0.0000
vt 0.3767 0.9954 0.0000
vt 0.3761 0.9906 0.0000
vt 0.3776 0.9981 0.0000
vt 0.6061 0.2493 0.0000
vt 0.6062 0.2545 0.0000
vt 0.6016 0.2544 0.0000
vt 0.6100 0.2493 0.0000
vt 0.6094 0.2542 0.0000
vt 0.6060 0.2579 0.0000
vt 0.6016 0.2586 0.0000
vt 0.6084 0.2569 0.0000
vt 0.2493 0.0094 0.0000
vt 0.2493 0.0044 0.0000
vt 0.2545 0.0043 0.0000
vt 0.2544 0.0094 0.0000
vt 0.2493 0.0002 0.0000
vt 0.2542 0.0008 0.0000
vt 0.2579 0.0046 0.0000
vt 0.2586 0.0094 0.0000
vt 0.2569 0.0019 0.0000
vt 0.5016 0.1250 0.0000
vt 0.4969 0.1251 0.0000
vt 0.4970 0.1199 0.0000
vt 0.5016 0.1292 0.0000
vt 0.4972 0.1286 0.0000
vt 0.4938 0.1248 0.0000
vt 0.4932 0.1199 0.0000
vt 0.4947 0.1275 0.0000
vt 0.2628 0.0094 0.0000
vt 0.2627 0.0043 0.0000
vt 0.2673 0.0044 0.0000
vt 0.2589 0.0094 0.0000
vt 0.2595 0.0046 0.0000
vt 0.2629 0.0008 0.0000
vt 0.2673 0.0002 0.0000
vt 0.2605 0.0019 0.0000
vt 0.1250 0.9906 0.0000
vt 0.1251 0.9957 0.0000
vt 0.1199 0.9956 0.0000
vt 0.1292 0.9906 0.0000
vt 0.1286 0.9954 0.0000
vt 0.1248 0.9992 0.0000
vt 0.1199 0.9998 0.0000
vt 0.1275 0.9981 0.0000
vt 0.3673 0.0044 0.0000
vt 0.3720 0.0043 0.0000
vt 0.3719 0.0094 0.0000
vt 0.3673 0.0002 0.0000
vt 0.3718 0.0008 0.0000
vt 0.3751 0.0046 0.0000
vt 0.3757 0.0094 0.0000
vt 0.3742 0.0019 0.0000
vt 0.6061 0.1199 0.0000
vt 0.6062 0.1251 0.0000
vt 0.6016 0.1250 0.0000
vt 0.6100 0.1199 0.0000
vt 0.6094 0.1248 0.0000
vt 0.6060 0.1286 0.0000
vt 0.6016 0.1292 0.0000
vt 0.6084 0.1275 0.0000
vt 0.1388 0.0094 0.0000
vt 0.1338 0.0094 0.0000
vt 0.1337 0.0043 0.0000
vt 0.1388 0.0044 0.0000
vt 0.1296 0.0094 0.0000
vt 0.1302 0.0046 0.0000
vt 0.1339 0.0008 0.0000
vt 0.1388 0.0002 0.0000
vt 0.1313 0.0019 0.0000
vt 0.4845 0.0044 0.0000
vt 0.4891 0.0043 0.0000
vt 0.4890 0.0094 0.0000
vt 0.4845 0.0002 0.0000
vt 0.4889 0.0008 0.0000
vt 0.4923 0.0046 0.0000
vt 0.4929 0.0094 0.0000
vt 0.4913 0.0019 0.0000
vt 0.4970 0.0094 0.0000
vt 0.4969 0.0043 0.0000
vt 0.5016 0.0044 0.0000
vt 0.4932 0.0094 0.0000
vt 0.4938 0.0046 0.0000
vt 0.4972 0.0008 0.0000
vt 0.5016 0.0002 0.0000
vt 0.4947 0.0019 0.0000
vt 0.0094 0.9956 0.0000
vt 0.0043 0.9957 0.0000
vt 0.0044 0.9906 0.0000
vt 0.0094 0.9998 0.0000
vt 0.0046 0.9992 0.0000
vt 0.0008 0.9954 0.0000
vt 0.0002 0.9906 0.0000
vt 0.0019 0.9981 0.0000
vt 0.6016 0.0044 0.0000
vt 0.6062 0.0043 0.0000
vt 0.6061 0.0094 0.0000
vt 0.6016 0.0002 0.0000
vt 0.6060 0.0008 0.0000
vt 0.6094 0.0046 0.0000
vt 0.6100 0.0094 0.0000
vt 0.6084 0.0019 0.0000
vt 0.3799 0.0094 0.0000
vt 0.3798 0.0043 0.0000
vt 0.3845 0.0044 0.0000
vt 0.3761 0.0094 0.0000
vt 0.3767 0.0046 0.0000
vt 0.3800 0.0008 0.0000
vt 0.3845 0.0002 0.0000
vt 0.3776 0.0019 0.0000
# 216 texture coords

o Cube
g Cube
usemtl 01___Default
s off
f 1/1/1 2/2/2 3/3/3 
f 3/3/3 4/4/4 1/1/1 
f 5/5/5 6/6/6 7/7/7 
f 7/7/7 8/8/8 5/5/5 
f 9/9/9 10/10/10 11/11/11 
f 11/11/11 12/12/12 9/9/9 
f 13/13/13 14/14/14 15/15/15 
f 15/15/15 16/16/16 13/13/13 
f 17/17/17 18/18/18 19/19/19 
f 19/19/19 20/20/20 17/17/17 
f 21/21/21 22/22/22 23/23/23 
f 23/23/23 24/24/24 21/21/21 
f 22/22/22 25/25/25 26/26/26 
f 26/26/26 23/23/23 22/22/22 
f 24/24/24 23/23/23 27/27/27 
f 27/27/27 28/28/28 24/24/24 
f 23/23/23 26/26/26 29/29/29 
f 29/29/29 27/27/27 23/23/23 
f 4/4/4 30/30/30 31/31/31 
f 31/31/31 32/32/32 4/4/4 
f 30/30/30 33/33/33 34/34/34 
f 34/34/34 31/31/31 30/30/30 
f 32/32/32 31/31/31 26/35/26 
f 26/35/26 25/36/25 32/32/32 
f 31/31/31 34/34/34 29/37/29 
f 29/37/29 26/35/26 31/31/31 
f 13/13/13 35/38/35 36/39/36 
f 36/39/36 37/40/37 13/13/13 
f 35/38/35 28/41/28 27/42/27 
f 27/42/27 36/39/36 35/38/35 
f 37/40/37 36/39/36 34/43/34 
f 34/43/34 33/44/33 37/40/37 
f 36/39/36 27/42/27 29/45/29 
f 29/45/29 34/43/34 36/39/36 
f 3/3/3 38/46/38 39/47/39 
f 39/47/39 40/48/40 3/3/3 
f 38/46/38 41/49/41 42/50/42 
f 42/50/42 39/47/39 38/46/38 
f 40/48/40 39/47/39 43/51/43 
f 43/51/43 44/52/44 40/48/40 
f 39/47/39 42/50/42 45/53/45 
f 45/53/45 43/51/43 39/47/39 
f 11/11/11 46/54/46 47/55/47 
f 47/55/47 48/56/48 11/11/11 
f 46/54/46 49/57/49 50/58/50 
f 50/58/50 47/55/47 46/54/46 
f 48/56/48 47/55/47 42/59/42 
f 42/59/42 41/60/41 48/56/48 
f 47/55/47 50/58/50 45/61/45 
f 45/61/45 42/59/42 47/55/47 
f 14/14/14 51/62/51 52/63/52 
f 52/63/52 53/64/53 14/14/14 
f 51/62/51 44/65/44 43/66/43 
f 43/66/43 52/63/52 51/62/51 
f 53/64/53 52/63/52 50/67/50 
f 50/67/50 49/68/49 53/64/53 
f 52/63/52 43/66/43 45/69/45 
f 45/69/45 50/67/50 52/63/52 
f 54/70/54 55/71/55 56/72/56 
f 56/72/56 57/73/57 54/70/54 
f 55/71/55 58/74/58 59/75/59 
f 59/75/59 56/72/56 55/71/55 
f 57/73/57 56/72/56 60/76/60 
f 60/76/60 61/77/61 57/73/57 
f 56/72/56 59/75/59 62/78/62 
f 62/78/62 60/76/60 56/72/56 
f 16/16/16 63/79/63 64/80/64 
f 64/80/64 65/81/65 16/16/16 
f 63/79/63 66/82/66 67/83/67 
f 67/83/67 64/80/64 63/79/63 
f 65/81/65 64/80/64 59/84/59 
f 59/84/59 58/85/58 65/81/65 
f 64/80/64 67/83/67 62/86/62 
f 62/86/62 59/84/59 64/80/64 
f 17/17/17 68/87/68 69/88/69 
f 69/88/69 70/89/70 17/17/17 
f 68/87/68 61/90/61 60/91/60 
f 60/91/60 69/88/69 68/87/68 
f 70/89/70 69/88/69 67/92/67 
f 67/92/67 66/93/66 70/89/70 
f 69/88/69 60/91/60 62/94/62 
f 62/94/62 67/92/67 69/88/69 
f 10/10/10 71/95/71 72/96/72 
f 72/96/72 73/97/73 10/10/10 
f 71/95/71 74/98/74 75/99/75 
f 75/99/75 72/96/72 71/95/71 
f 73/97/73 72/96/72 76/100/76 
f 76/100/76 77/101/77 73/97/73 
f 72/96/72 75/99/75 78/102/78 
f 78/102/78 76/100/76 72/96/72 
f 18/18/18 79/103/79 80/104/80 
f 80/104/80 81/105/81 18/18/18 
f 79/103/79 82/106/82 83/107/83 
f 83/107/83 80/104/80 79/103/79 
f 81/105/81 80/104/80 75/108/75 
f 75/108/75 74/109/74 81/105/81 
f 80/104/80 83/107/83 78/110/78 
f 78/110/78 75/108/75 80/104/80 
f 15/15/15 84/111/84 85/112/85 
f 85/112/85 86/113/86 15/15/15 
f 84/111/84 77/114/77 76/115/76 
f 76/115/76 85/112/85 84/111/84 
f 86/113/86 85/112/85 83/116/83 
f 83/116/83 82/117/82 86/113/86 
f 85/112/85 76/115/76 78/118/78 
f 78/118/78 83/116/83 85/112/85 
f 87/119/87 88/120/88 89/121/89 
f 89/121/89 90/122/90 87/119/87 
f 88/120/88 91/123/91 92/124/92 
f 92/124/92 89/121/89 88/120/88 
f 90/122/90 89/121/89 93/125/93 
f 93/125/93 94/126/94 90/122/90 
f 89/121/89 92/124/92 95/127/95 
f 95/127/95 93/125/93 89/121/89 
f 8/8/8 96/128/96 97/129/97 
f 97/129/97 98/130/98 8/8/8 
f 96/128/96 99/131/99 100/132/100 
f 100/132/100 97/129/97 96/128/96 
f 98/130/98 97/129/97 92/133/92 
f 92/133/92 91/134/91 98/130/98 
f 97/129/97 100/132/100 95/135/95 
f 95/135/95 92/133/92 97/129/97 
f 1/1/1 101/136/101 102/137/102 
f 102/137/102 103/138/103 1/1/1 
f 101/136/101 94/139/94 93/140/93 
f 93/140/93 102/137/102 101/136/101 
f 103/138/103 102/137/102 100/141/100 
f 100/141/100 99/142/99 103/138/103 
f 102/137/102 93/140/93 95/143/95 
f 95/143/95 100/141/100 102/137/102 
f 12/12/12 104/144/104 105/145/105 
f 105/145/105 106/146/106 12/12/12 
f 104/144/104 107/147/107 108/148/108 
f 108/148/108 105/145/105 104/144/104 
f 106/146/106 105/145/105 109/149/109 
f 109/149/109 110/150/110 106/146/106 
f 105/145/105 108/148/108 111/151/111 
f 111/151/111 109/149/109 105/145/105 
f 2/2/2 112/152/112 113/153/113 
f 113/153/113 114/154/114 2/2/2 
f 112/152/112 115/155/115 116/156/116 
f 116/156/116 113/153/113 112/152/112 
f 114/154/114 113/153/113 108/157/108 
f 108/157/108 107/158/107 114/154/114 
f 113/153/113 116/156/116 111/159/111 
f 111/159/111 108/157/108 113/153/113 
f 7/7/7 117/160/117 118/161/118 
f 118/161/118 119/162/119 7/7/7 
f 117/160/117 110/163/110 109/164/109 
f 109/164/109 118/161/118 117/160/117 
f 119/162/119 118/161/118 116/165/116 
f 116/165/116 115/166/115 119/162/119 
f 118/161/118 109/164/109 111/167/111 
f 111/167/111 116/165/116 118/161/118 
f 120/168/120 121/169/121 122/170/122 
f 122/170/122 123/171/123 120/168/120 
f 121/169/121 124/172/124 125/173/125 
f 125/173/125 122/170/122 121/169/121 
f 123/171/123 122/170/122 126/174/126 
f 126/174/126 127/175/127 123/171/123 
f 122/170/122 125/173/125 128/176/128 
f 128/176/128 126/174/126 122/170/122 
f 20/20/20 129/177/129 130/178/130 
f 130/178/130 131/179/131 20/20/20 
f 129/177/129 132/180/132 133/181/133 
f 133/181/133 130/178/130 129/177/129 
f 131/179/131 130/178/130 125/182/125 
f 125/182/125 124/183/124 131/179/131 
f 130/178/130 133/181/133 128/184/128 
f 128/184/128 125/182/125 130/178/130 
f 5/5/5 134/185/134 135/186/135 
f 135/186/135 136/187/136 5/5/5 
f 134/185/134 127/188/127 126/189/126 
f 126/189/126 135/186/135 134/185/134 
f 136/187/136 135/186/135 133/190/133 
f 133/190/133 132/191/132 136/187/136 
f 135/186/135 126/189/126 128/192/128 
f 128/192/128 133/190/133 135/186/135 
f 9/9/9 137/193/137 138/194/138 
f 138/194/138 139/195/139 9/9/9 
f 137/193/137 140/196/140 141/197/141 
f 141/197/141 138/194/138 137/193/137 
f 139/195/139 138/194/138 142/198/142 
f 142/198/142 143/199/143 139/195/139 
f 138/194/138 141/197/141 144/200/144 
f 144/200/144 142/198/142 138/194/138 
f 6/6/6 145/201/145 146/202/146 
f 146/202/146 147/203/147 6/6/6 
f 145/201/145 148/204/148 149/205/149 
f 149/205/149 146/202/146 145/201/145 
f 147/203/147 146/202/146 141/206/141 
f 141/206/141 140/207/140 147/203/147 
f 146/202/146 149/205/149 144/208/144 
f 144/208/144 141/206/141 146/202/146 
f 19/19/19 150/209/150 151/210/151 
f 151/210/151 152/211/152 19/19/19 
f 150/209/150 143/212/143 142/213/142 
f 142/213/142 151/210/151 150/209/150 
f 152/211/152 151/210/151 149/214/149 
f 149/214/149 148/215/148 152/211/152 
f 151/210/151 142/213/142 144/216/144 
f 144/216/144 149/214/149 151/210/151 
f 54/70/54 21/21/21 24/24/24 
f 24/24/24 55/71/55 54/70/54 
f 55/71/55 24/24/24 28/28/28 
f 28/28/28 58/74/58 55/71/55 
f 58/85/58 28/41/28 35/38/35 
f 35/38/35 65/81/65 58/85/58 
f 65/81/65 35/38/35 13/13/13 
f 13/13/13 16/16/16 65/81/65 
f 4/4/4 3/3/3 40/48/40 
f 40/48/40 30/30/30 4/4/4 
f 30/30/30 40/48/40 44/52/44 
f 44/52/44 33/33/33 30/30/30 
f 33/44/33 44/65/44 51/62/51 
f 51/62/51 37/40/37 33/44/33 
f 37/40/37 51/62/51 14/14/14 
f 14/14/14 13/13/13 37/40/37 
f 11/11/11 10/10/10 73/97/73 
f 73/97/73 46/54/46 11/11/11 
f 46/54/46 73/97/73 77/101/77 
f 77/101/77 49/57/49 46/54/46 
f 49/68/49 77/114/77 84/111/84 
f 84/111/84 53/64/53 49/68/49 
f 53/64/53 84/111/84 15/15/15 
f 15/15/15 14/14/14 53/64/53 
f 18/18/18 17/17/17 70/89/70 
f 70/89/70 79/103/79 18/18/18 
f 79/103/79 70/89/70 66/93/66 
f 66/93/66 82/106/82 79/103/79 
f 82/117/82 66/82/66 63/79/63 
f 63/79/63 86/113/86 82/117/82 
f 86/113/86 63/79/63 16/16/16 
f 16/16/16 15/15/15 86/113/86 
f 120/168/120 54/70/54 57/73/57 
f 57/73/57 121/169/121 120/168/120 
f 121/169/121 57/73/57 61/77/61 
f 61/77/61 124/172/124 121/169/121 
f 124/183/124 61/90/61 68/87/68 
f 68/87/68 131/179/131 124/183/124 
f 131/179/131 68/87/68 17/17/17 
f 17/17/17 20/20/20 131/179/131 
f 10/10/10 9/9/9 139/195/139 
f 139/195/139 71/95/71 10/10/10 
f 71/95/71 139/195/139 143/199/143 
f 143/199/143 74/98/74 71/95/71 
f 74/109/74 143/212/143 150/209/150 
f 150/209/150 81/105/81 74/109/74 
f 81/105/81 150/209/150 19/19/19 
f 19/19/19 18/18/18 81/105/81 
f 6/6/6 5/5/5 136/187/136 
f 136/187/136 145/201/145 6/6/6 
f 145/201/145 136/187/136 132/191/132 
f 132/191/132 148/204/148 145/201/145 
f 148/215/148 132/180/132 129/177/129 
f 129/177/129 152/211/152 148/215/148 
f 152/211/152 129/177/129 20/20/20 
f 20/20/20 19/19/19 152/211/152 
f 87/119/87 120/168/120 123/171/123 
f 123/171/123 88/120/88 87/119/87 
f 88/120/88 123/171/123 127/175/127 
f 127/175/127 91/123/91 88/120/88 
f 91/134/91 127/188/127 134/185/134 
f 134/185/134 98/130/98 91/134/91 
f 98/130/98 134/185/134 5/5/5 
f 5/5/5 8/8/8 98/130/98 
f 9/9/9 12/12/12 106/146/106 
f 106/146/106 137/193/137 9/9/9 
f 137/193/137 106/146/106 110/150/110 
f 110/150/110 140/196/140 137/193/137 
f 140/207/140 110/163/110 117/160/117 
f 117/160/117 147/203/147 140/207/140 
f 147/203/147 117/160/117 7/7/7 
f 7/7/7 6/6/6 147/203/147 
f 2/2/2 1/1/1 103/138/103 
f 103/138/103 112/152/112 2/2/2 
f 112/152/112 103/138/103 99/142/99 
f 99/142/99 115/155/115 112/152/112 
f 115/166/115 99/131/99 96/128/96 
f 96/128/96 119/162/119 115/166/115 
f 119/162/119 96/128/96 8/8/8 
f 8/8/8 7/7/7 119/162/119 
f 21/21/21 87/119/87 90/122/90 
f 90/122/90 22/22/22 21/21/21 
f 22/22/22 90/122/90 94/126/94 
f 94/126/94 25/25/25 22/22/22 
f 25/36/25 94/139/94 101/136/101 
f 101/136/101 32/32/32 25/36/25 
f 32/32/32 101/136/101 1/1/1 
f 1/1/1 4/4/4 32/32/32 
f 12/12/12 11/11/11 48/56/48 
f 48/56/48 104/144/104 12/12/12 
f 104/144/104 48/56/48 41/60/41 
f 41/60/41 107/147/107 104/144/104 
f 107/158/107 41/49/41 38/46/38 
f 38/46/38 114/154/114 107/158/107 
f 114/154/114 38/46/38 3/3/3 
f 3/3/3 2/2/2 114/154/114 
f 54/70/54 120/168/120 87/119/87 
f 87/119/87 21/21/21 54/70/54 
# 300 faces

