# 3ds Max Wavefront OBJ Exporter v0.99 - (c)2007 guruware
# File Created: 05.05.2025 00:39:41

mtllib tubo1.mtl

#
# object Cylinder_001
#

v  0.0272 0.0025 0.0000
v  0.0272 1.5221 0.0000
v  0.0267 1.5221 0.0053
v  0.0267 0.0025 0.0053
v  0.0251 1.5221 0.0104
v  0.0251 0.0025 0.0104
v  0.0226 1.5221 0.0151
v  0.0226 0.0025 0.0151
v  0.0192 1.5221 0.0192
v  0.0192 0.0025 0.0192
v  0.0151 1.5221 0.0226
v  0.0151 0.0025 0.0226
v  0.0104 1.5221 0.0251
v  0.0104 0.0025 0.0251
v  0.0053 1.5221 0.0267
v  0.0053 0.0025 0.0267
v  -0.0000 1.5221 0.0272
v  -0.0000 0.0025 0.0272
v  -0.0053 1.5221 0.0267
v  -0.0053 0.0025 0.0267
v  -0.0104 1.5221 0.0251
v  -0.0104 0.0025 0.0251
v  -0.0151 1.5221 0.0226
v  -0.0151 0.0025 0.0226
v  -0.0192 1.5221 0.0192
v  -0.0192 0.0025 0.0192
v  -0.0226 1.5221 0.0151
v  -0.0226 0.0025 0.0151
v  -0.0251 1.5221 0.0104
v  -0.0251 0.0025 0.0104
v  -0.0267 1.5221 0.0053
v  -0.0267 0.0025 0.0053
v  -0.0272 1.5221 -0.0000
v  -0.0272 0.0025 -0.0000
v  -0.0267 1.5221 -0.0053
v  -0.0267 0.0025 -0.0053
v  -0.0251 1.5221 -0.0104
v  -0.0251 0.0025 -0.0104
v  -0.0226 1.5221 -0.0151
v  -0.0226 0.0025 -0.0151
v  -0.0192 1.5221 -0.0192
v  -0.0192 0.0025 -0.0192
v  -0.0151 1.5221 -0.0226
v  -0.0151 0.0025 -0.0226
v  -0.0104 1.5221 -0.0251
v  -0.0104 0.0025 -0.0251
v  -0.0053 1.5221 -0.0267
v  -0.0053 0.0025 -0.0267
v  0.0000 1.5221 -0.0272
v  0.0000 0.0025 -0.0272
v  0.0053 1.5221 -0.0267
v  0.0053 0.0025 -0.0267
v  0.0104 1.5221 -0.0251
v  0.0104 0.0025 -0.0251
v  0.0151 1.5221 -0.0226
v  0.0151 0.0025 -0.0226
v  0.0192 1.5221 -0.0192
v  0.0192 0.0025 -0.0192
v  0.0226 1.5221 -0.0151
v  0.0226 0.0025 -0.0151
v  0.0251 1.5221 -0.0104
v  0.0251 0.0025 -0.0104
v  0.0267 1.5221 -0.0053
v  0.0267 0.0025 -0.0053
# 64 vertices

vn 1.0000 -0.0000 0.0000
vn 0.9808 -0.0000 0.1951
vn 0.9239 -0.0000 0.3827
vn 0.8315 -0.0000 0.5556
vn 0.7071 -0.0000 0.7071
vn 0.5556 -0.0000 0.8315
vn 0.3827 -0.0000 0.9239
vn 0.1951 -0.0000 0.9808
vn -0.0000 0.0000 1.0000
vn -0.1951 0.0000 0.9808
vn -0.3827 0.0000 0.9239
vn -0.5556 0.0000 0.8315
vn -0.7071 0.0000 0.7071
vn -0.8315 0.0000 0.5556
vn -0.9239 0.0000 0.3827
vn -0.9808 0.0000 0.1951
vn -1.0000 0.0000 -0.0000
vn -0.9808 0.0000 -0.1951
vn -0.9239 0.0000 -0.3827
vn -0.8315 0.0000 -0.5556
vn -0.7071 0.0000 -0.7071
vn -0.5556 0.0000 -0.8315
vn -0.3827 0.0000 -0.9239
vn -0.1951 0.0000 -0.9808
vn 0.0000 0.0000 -1.0000
vn 0.1951 -0.0000 -0.9808
vn 0.3827 -0.0000 -0.9239
vn 0.5556 -0.0000 -0.8315
vn 0.7071 -0.0000 -0.7071
vn 0.8315 -0.0000 -0.5556
vn 0.9239 -0.0000 -0.3827
vn -0.0000 1.0000 0.0000
vn 0.9808 -0.0000 -0.1951
vn -0.0000 -1.0000 -0.0000
# 34 vertex normals

vt 0.0087 0.9999 0.0000
vt 0.0087 0.0001 0.0000
vt 0.0122 0.0001 0.0000
vt 0.0122 0.9999 0.0000
vt 0.0157 0.0001 0.0000
vt 0.0157 0.9999 0.0000
vt 0.0191 0.0001 0.0000
vt 0.0191 0.9999 0.0000
vt 0.0223 0.0001 0.0000
vt 0.0223 0.9999 0.0000
vt 0.0253 0.0001 0.0000
vt 0.0253 0.9999 0.0000
vt 0.0254 0.9999 0.0000
vt 0.0254 0.0001 0.0000
vt 0.0279 0.0001 0.0000
vt 0.0279 0.9999 0.0000
vt 0.0308 0.0001 0.0000
vt 0.0308 0.9999 0.0000
vt 0.0340 0.0001 0.0000
vt 0.0340 0.9999 0.0000
vt 0.0375 0.0001 0.0000
vt 0.0375 0.9999 0.0000
vt 0.0410 0.0001 0.0000
vt 0.0410 0.9999 0.0000
vt 0.0444 0.0001 0.0000
vt 0.0444 0.9999 0.0000
vt 0.0477 0.0001 0.0000
vt 0.0477 0.9999 0.0000
vt 0.0506 0.0001 0.0000
vt 0.0506 0.9999 0.0000
vt 0.0507 0.9999 0.0000
vt 0.0507 0.0001 0.0000
vt 0.0532 0.0001 0.0000
vt 0.0532 0.9999 0.0000
vt 0.0561 0.0001 0.0000
vt 0.0561 0.9999 0.0000
vt 0.0594 0.0001 0.0000
vt 0.0594 0.9999 0.0000
vt 0.0628 0.0001 0.0000
vt 0.0628 0.9999 0.0000
vt 0.0663 0.0001 0.0000
vt 0.0663 0.9999 0.0000
vt 0.0698 0.0001 0.0000
vt 0.0698 0.9999 0.0000
vt 0.0730 0.0001 0.0000
vt 0.0730 0.9999 0.0000
vt 0.0759 0.0001 0.0000
vt 0.0759 0.9999 0.0000
vt 0.0761 0.9999 0.0000
vt 0.0761 0.0001 0.0000
vt 0.0785 0.0001 0.0000
vt 0.0785 0.9999 0.0000
vt 0.0815 0.0001 0.0000
vt 0.0815 0.9999 0.0000
vt 0.0847 0.0001 0.0000
vt 0.0847 0.9999 0.0000
vt 0.0881 0.0001 0.0000
vt 0.0881 0.9999 0.0000
vt 0.0917 0.0001 0.0000
vt 0.0917 0.9999 0.0000
vt 0.0951 0.0001 0.0000
vt 0.0951 0.9999 0.0000
vt 0.0983 0.0001 0.0000
vt 0.0983 0.9999 0.0000
vt 0.1013 0.0001 0.0000
vt 0.1013 0.9999 0.0000
vt 0.0001 0.9999 0.0000
vt 0.0001 0.0001 0.0000
vt 0.0026 0.0001 0.0000
vt 0.0026 0.9999 0.0000
vt 0.1370 0.0161 0.0000
vt 0.1370 0.0196 0.0000
vt 0.1363 0.0231 0.0000
vt 0.1350 0.0263 0.0000
vt 0.1330 0.0292 0.0000
vt 0.1306 0.0317 0.0000
vt 0.1276 0.0337 0.0000
vt 0.1244 0.0350 0.0000
vt 0.1210 0.0357 0.0000
vt 0.1175 0.0357 0.0000
vt 0.1140 0.0350 0.0000
vt 0.1108 0.0337 0.0000
vt 0.1079 0.0317 0.0000
vt 0.1054 0.0292 0.0000
vt 0.1034 0.0263 0.0000
vt 0.1021 0.0231 0.0000
vt 0.1014 0.0196 0.0000
vt 0.1014 0.0161 0.0000
vt 0.1021 0.0127 0.0000
vt 0.1034 0.0094 0.0000
vt 0.1054 0.0065 0.0000
vt 0.1079 0.0040 0.0000
vt 0.1108 0.0021 0.0000
vt 0.1140 0.0008 0.0000
vt 0.1175 0.0001 0.0000
vt 0.1210 0.0001 0.0000
vt 0.1244 0.0008 0.0000
vt 0.1276 0.0021 0.0000
vt 0.1306 0.0040 0.0000
vt 0.1330 0.0065 0.0000
vt 0.1350 0.0094 0.0000
vt 0.1363 0.0127 0.0000
vt 0.0055 0.0001 0.0000
vt 0.0055 0.9999 0.0000
vt 0.1370 0.0554 0.0000
vt 0.1363 0.0588 0.0000
vt 0.1350 0.0621 0.0000
vt 0.1330 0.0650 0.0000
vt 0.1306 0.0675 0.0000
vt 0.1276 0.0694 0.0000
vt 0.1244 0.0708 0.0000
vt 0.1210 0.0715 0.0000
vt 0.1175 0.0715 0.0000
vt 0.1140 0.0708 0.0000
vt 0.1108 0.0694 0.0000
vt 0.1079 0.0675 0.0000
vt 0.1054 0.0650 0.0000
vt 0.1034 0.0621 0.0000
vt 0.1021 0.0588 0.0000
vt 0.1014 0.0554 0.0000
vt 0.1014 0.0519 0.0000
vt 0.1021 0.0485 0.0000
vt 0.1034 0.0452 0.0000
vt 0.1054 0.0423 0.0000
vt 0.1079 0.0398 0.0000
vt 0.1108 0.0379 0.0000
vt 0.1140 0.0365 0.0000
vt 0.1175 0.0358 0.0000
vt 0.1210 0.0358 0.0000
vt 0.1244 0.0365 0.0000
vt 0.1276 0.0379 0.0000
vt 0.1306 0.0398 0.0000
vt 0.1330 0.0423 0.0000
vt 0.1350 0.0452 0.0000
vt 0.1363 0.0485 0.0000
vt 0.1370 0.0519 0.0000
# 136 texture coords

o Cylinder_001
g Cylinder_001
usemtl Rough_Black_Texture
s off
f 1/1/1 2/2/1 3/3/2 
f 3/3/2 4/4/2 1/1/1 
f 4/4/2 3/3/2 5/5/3 
f 5/5/3 6/6/3 4/4/2 
f 6/6/3 5/5/3 7/7/4 
f 7/7/4 8/8/4 6/6/3 
f 8/8/4 7/7/4 9/9/5 
f 9/9/5 10/10/5 8/8/4 
f 10/10/5 9/9/5 11/11/6 
f 11/11/6 12/12/6 10/10/5 
f 12/13/6 11/14/6 13/15/7 
f 13/15/7 14/16/7 12/13/6 
f 14/16/7 13/15/7 15/17/8 
f 15/17/8 16/18/8 14/16/7 
f 16/18/8 15/17/8 17/19/9 
f 17/19/9 18/20/9 16/18/8 
f 18/20/9 17/19/9 19/21/10 
f 19/21/10 20/22/10 18/20/9 
f 20/22/10 19/21/10 21/23/11 
f 21/23/11 22/24/11 20/22/10 
f 22/24/11 21/23/11 23/25/12 
f 23/25/12 24/26/12 22/24/11 
f 24/26/12 23/25/12 25/27/13 
f 25/27/13 26/28/13 24/26/12 
f 26/28/13 25/27/13 27/29/14 
f 27/29/14 28/30/14 26/28/13 
f 28/31/14 27/32/14 29/33/15 
f 29/33/15 30/34/15 28/31/14 
f 30/34/15 29/33/15 31/35/16 
f 31/35/16 32/36/16 30/34/15 
f 32/36/16 31/35/16 33/37/17 
f 33/37/17 34/38/17 32/36/16 
f 34/38/17 33/37/17 35/39/18 
f 35/39/18 36/40/18 34/38/17 
f 36/40/18 35/39/18 37/41/19 
f 37/41/19 38/42/19 36/40/18 
f 38/42/19 37/41/19 39/43/20 
f 39/43/20 40/44/20 38/42/19 
f 40/44/20 39/43/20 41/45/21 
f 41/45/21 42/46/21 40/44/20 
f 42/46/21 41/45/21 43/47/22 
f 43/47/22 44/48/22 42/46/21 
f 44/49/22 43/50/22 45/51/23 
f 45/51/23 46/52/23 44/49/22 
f 46/52/23 45/51/23 47/53/24 
f 47/53/24 48/54/24 46/52/23 
f 48/54/24 47/53/24 49/55/25 
f 49/55/25 50/56/25 48/54/24 
f 50/56/25 49/55/25 51/57/26 
f 51/57/26 52/58/26 50/56/25 
f 52/58/26 51/57/26 53/59/27 
f 53/59/27 54/60/27 52/58/26 
f 54/60/27 53/59/27 55/61/28 
f 55/61/28 56/62/28 54/60/27 
f 56/62/28 55/61/28 57/63/29 
f 57/63/29 58/64/29 56/62/28 
f 58/64/29 57/63/29 59/65/30 
f 59/65/30 60/66/30 58/64/29 
f 60/67/30 59/68/30 61/69/31 
f 61/69/31 62/70/31 60/67/30 
f 3/71/32 2/72/32 63/73/32 
f 3/71/32 63/73/32 61/74/32 
f 3/71/32 61/74/32 59/75/32 
f 3/71/32 59/75/32 57/76/32 
f 3/71/32 57/76/32 55/77/32 
f 3/71/32 55/77/32 53/78/32 
f 3/71/32 53/78/32 51/79/32 
f 3/71/32 51/79/32 49/80/32 
f 3/71/32 49/80/32 47/81/32 
f 3/71/32 47/81/32 45/82/32 
f 3/71/32 45/82/32 43/83/32 
f 3/71/32 43/83/32 41/84/32 
f 3/71/32 41/84/32 39/85/32 
f 3/71/32 39/85/32 37/86/32 
f 3/71/32 37/86/32 35/87/32 
f 3/71/32 35/87/32 33/88/32 
f 3/71/32 33/88/32 31/89/32 
f 3/71/32 31/89/32 29/90/32 
f 3/71/32 29/90/32 27/91/32 
f 3/71/32 27/91/32 25/92/32 
f 3/71/32 25/92/32 23/93/32 
f 3/71/32 23/93/32 21/94/32 
f 3/71/32 21/94/32 19/95/32 
f 3/71/32 19/95/32 17/96/32 
f 3/71/32 17/96/32 15/97/32 
f 3/71/32 15/97/32 13/98/32 
f 3/71/32 13/98/32 11/99/32 
f 3/71/32 11/99/32 9/100/32 
f 3/71/32 9/100/32 7/101/32 
f 3/71/32 7/101/32 5/102/32 
f 62/70/31 61/69/31 63/103/33 
f 63/103/33 64/104/33 62/70/31 
f 64/104/33 63/103/33 2/2/1 
f 2/2/1 1/1/1 64/104/33 
f 1/105/34 4/106/34 6/107/34 
f 1/105/34 6/107/34 8/108/34 
f 1/105/34 8/108/34 10/109/34 
f 1/105/34 10/109/34 12/110/34 
f 1/105/34 12/110/34 14/111/34 
f 1/105/34 14/111/34 16/112/34 
f 1/105/34 16/112/34 18/113/34 
f 1/105/34 18/113/34 20/114/34 
f 1/105/34 20/114/34 22/115/34 
f 1/105/34 22/115/34 24/116/34 
f 1/105/34 24/116/34 26/117/34 
f 1/105/34 26/117/34 28/118/34 
f 1/105/34 28/118/34 30/119/34 
f 1/105/34 30/119/34 32/120/34 
f 1/105/34 32/120/34 34/121/34 
f 1/105/34 34/121/34 36/122/34 
f 1/105/34 36/122/34 38/123/34 
f 1/105/34 38/123/34 40/124/34 
f 1/105/34 40/124/34 42/125/34 
f 1/105/34 42/125/34 44/126/34 
f 1/105/34 44/126/34 46/127/34 
f 1/105/34 46/127/34 48/128/34 
f 1/105/34 48/128/34 50/129/34 
f 1/105/34 50/129/34 52/130/34 
f 1/105/34 52/130/34 54/131/34 
f 1/105/34 54/131/34 56/132/34 
f 1/105/34 56/132/34 58/133/34 
f 1/105/34 58/133/34 60/134/34 
f 1/105/34 60/134/34 62/135/34 
f 1/105/34 62/135/34 64/136/34 
# 124 faces

