# 3ds Max Wavefront OBJ Exporter v0.99 - (c)2007 guruware
# File Created: 06.05.2025 14:03:59

mtllib FI.mtl

#
# object Plane001
#

v  -14.5000 15.7500 -0.0000
v  -14.5000 11.0000 -0.0000
v  -7.2500 15.7500 -0.0000
v  -7.2500 11.0000 -0.0000
v  0.0000 15.7500 -0.0000
v  0.0000 11.0000 -0.0000
v  7.2500 15.7500 -0.0000
v  7.2500 11.0000 -0.0000
v  14.5000 15.7500 -0.0000
v  14.5000 11.0000 -0.0000
v  -14.5000 20.5000 -0.0000
v  -7.2500 20.5000 -0.0000
v  0.0000 20.5000 -0.0000
v  7.2500 20.5000 -0.0000
v  14.5000 20.5000 -0.0000
v  -14.5000 25.2500 -0.0001
v  -7.2500 25.2500 -0.0001
v  0.0000 25.2500 -0.0001
v  7.2500 25.2500 -0.0001
v  14.5000 25.2500 -0.0001
v  -14.5000 30.0000 -0.0001
v  -7.2500 30.0000 -0.0001
v  0.0000 30.0000 -0.0001
v  7.2500 30.0000 -0.0001
v  14.5000 30.0000 -0.0001
# 25 vertices

vn 0.0000 0.0000 1.0000
# 1 vertex normals

vt 0.0000 0.2500 0.0000
vt 0.0000 0.0000 0.0000
vt 0.2305 0.2370 0.0000
vt 0.2500 0.0000 0.0000
vt 0.4892 0.2370 0.0000
vt 0.5000 0.0000 0.0000
vt 0.7478 0.2370 0.0000
vt 0.7500 0.0000 0.0000
vt 1.0000 0.2500 0.0000
vt 1.0000 0.0000 0.0000
vt 0.0000 0.5000 0.0000
vt 0.2305 0.5411 0.0000
vt 0.4892 0.5411 0.0000
vt 0.7478 0.5411 0.0000
vt 1.0000 0.5000 0.0000
vt 0.0000 0.7500 0.0000
vt 0.2305 0.8452 0.0000
vt 0.4892 0.8452 0.0000
vt 0.7478 0.8452 0.0000
vt 1.0000 0.7500 0.0000
vt 0.0000 1.0000 0.0000
vt 0.2500 1.0000 0.0000
vt 0.5000 1.0000 0.0000
vt 0.7500 1.0000 0.0000
vt 1.0000 1.0000 0.0000
# 25 texture coords

o Plane001
g Plane001
usemtl 14___Default
s 1
f 1/1/1 2/2/1 3/3/1 
f 4/4/1 3/3/1 2/2/1 
f 3/3/1 4/4/1 5/5/1 
f 6/6/1 5/5/1 4/4/1 
f 5/5/1 6/6/1 7/7/1 
f 8/8/1 7/7/1 6/6/1 
f 7/7/1 8/8/1 9/9/1 
f 10/10/1 9/9/1 8/8/1 
f 11/11/1 1/1/1 12/12/1 
f 3/3/1 12/12/1 1/1/1 
f 12/12/1 3/3/1 13/13/1 
f 5/5/1 13/13/1 3/3/1 
f 13/13/1 5/5/1 14/14/1 
f 7/7/1 14/14/1 5/5/1 
f 14/14/1 7/7/1 15/15/1 
f 9/9/1 15/15/1 7/7/1 
f 16/16/1 11/11/1 17/17/1 
f 12/12/1 17/17/1 11/11/1 
f 17/17/1 12/12/1 18/18/1 
f 13/13/1 18/18/1 12/12/1 
f 18/18/1 13/13/1 19/19/1 
f 14/14/1 19/19/1 13/13/1 
f 19/19/1 14/14/1 20/20/1 
f 15/15/1 20/20/1 14/14/1 
f 21/21/1 16/16/1 22/22/1 
f 17/17/1 22/22/1 16/16/1 
f 22/22/1 17/17/1 23/23/1 
f 18/18/1 23/23/1 17/17/1 
f 23/23/1 18/18/1 24/24/1 
f 19/19/1 24/24/1 18/18/1 
f 24/24/1 19/19/1 25/25/1 
f 20/20/1 25/25/1 19/19/1 
# 32 faces

#
# object Box005
#

v  15.5000 0.0000 0.2500
v  15.5000 0.0000 -0.2500
v  15.5000 1.0000 -0.2500
v  15.5000 1.0000 0.2500
v  -15.5000 0.0000 0.2500
v  -15.5000 1.0000 0.2500
v  -15.5000 1.0000 -0.2500
v  -15.5000 0.0000 -0.2500
v  15.5000 10.0000 0.2500
v  15.5000 10.0000 -0.2500
v  15.5000 11.0000 -0.2500
v  15.5000 11.0000 0.2500
v  -15.5000 10.0000 0.2500
v  -15.5000 11.0000 0.2500
v  -15.5000 11.0000 -0.2500
v  -15.5000 10.0000 -0.2500
v  15.5000 30.0000 0.2500
v  15.5000 30.0000 -0.2500
v  15.5000 31.0000 -0.2500
v  15.5000 31.0000 0.2500
v  -15.5000 30.0000 0.2500
v  -15.5000 31.0000 0.2500
v  -15.5000 31.0000 -0.2500
v  -15.5000 30.0000 -0.2500
v  14.5000 0.5000 0.2500
v  14.5000 0.5000 -0.2500
v  15.5000 0.5000 -0.2500
v  15.5000 0.5000 0.2500
v  14.5000 30.5000 0.2500
v  15.5000 30.5000 0.2500
v  15.5000 30.5000 -0.2500
v  14.5000 30.5000 -0.2500
v  -15.5000 0.5000 0.2500
v  -15.5000 0.5000 -0.2500
v  -14.5000 0.5000 -0.2500
v  -14.5000 0.5000 0.2500
v  -15.5000 30.5000 0.2500
v  -14.5000 30.5000 0.2500
v  -14.5000 30.5000 -0.2500
v  -15.5000 30.5000 -0.2500
v  -15.0000 0.5000 -0.0000
v  -7.5000 0.5000 -0.0000
v  -7.5000 3.0000 -0.0000
v  -15.0000 3.0000 -0.0000
v  0.0000 0.5000 -0.0000
v  0.0000 3.0000 -0.0000
v  7.5000 0.5000 -0.0000
v  7.5000 3.0000 -0.0000
v  15.0000 0.5000 -0.0000
v  15.0000 3.0000 -0.0000
v  -7.5000 5.5000 -0.0000
v  -15.0000 5.5000 -0.0000
v  0.0000 5.5000 -0.0000
v  7.5000 5.5000 -0.0000
v  15.0000 5.5000 -0.0000
v  -7.5000 8.0000 -0.0001
v  -15.0000 8.0000 -0.0001
v  0.0000 8.0000 -0.0001
v  7.5000 8.0000 -0.0001
v  15.0000 8.0000 -0.0001
v  -7.5000 10.5000 -0.0001
v  -15.0000 10.5000 -0.0001
v  0.0000 10.5000 -0.0001
v  7.5000 10.5000 -0.0001
v  15.0000 10.5000 -0.0001
# 65 vertices

vn 1.0000 -0.0000 -0.0000
vn -1.0000 0.0000 -0.0000
vn 0.0000 0.0000 1.0000
vn 0.0000 1.0000 -0.0000
vn 0.0000 0.0000 -1.0000
vn -0.0000 -1.0000 -0.0000
vn 1.0000 0.0000 -0.0000
vn -1.0000 -0.0000 -0.0000
vn 0.0000 -1.0000 -0.0000
vn -0.0000 0.0000 1.0000
# 10 vertex normals

vt 1.0000 0.0000 0.0000
vt 1.0000 1.0000 0.0000
vt 0.0000 1.0000 0.0000
vt 0.0000 0.0000 0.0000
vt 0.2500 0.0000 0.0000
vt 0.2500 0.2500 0.0000
vt 0.0000 0.2500 0.0000
vt 0.5000 0.0000 0.0000
vt 0.5000 0.2500 0.0000
vt 0.7500 0.0000 0.0000
vt 0.7500 0.2500 0.0000
vt 1.0000 0.2500 0.0000
vt 0.2500 0.5000 0.0000
vt 0.0000 0.5000 0.0000
vt 0.5000 0.5000 0.0000
vt 0.7500 0.5000 0.0000
vt 1.0000 0.5000 0.0000
vt 0.2500 0.7500 0.0000
vt 0.0000 0.7500 0.0000
vt 0.5000 0.7500 0.0000
vt 0.7500 0.7500 0.0000
vt 1.0000 0.7500 0.0000
vt 0.2500 1.0000 0.0000
vt 0.5000 1.0000 0.0000
vt 0.7500 1.0000 0.0000
# 25 texture coords

o Box005
g Box005
usemtl 07___Default
s 2
f 26/26/2 27/27/2 28/28/2 
f 28/28/2 29/29/2 26/26/2 
s 4
f 30/29/3 31/26/3 32/27/3 
f 32/27/3 33/28/3 30/29/3 
s 8
f 26/29/4 29/26/4 31/27/4 
f 31/27/4 30/28/4 26/29/4 
s 16
f 29/29/5 28/26/5 32/27/5 
f 32/27/5 31/28/5 29/29/5 
s 32
f 28/29/6 27/26/6 33/27/6 
f 33/27/6 32/28/6 28/29/6 
s 64
f 27/29/7 26/26/7 30/27/7 
f 30/27/7 33/28/7 27/29/7 
s 2
f 34/26/2 35/27/2 36/28/2 
f 36/28/2 37/29/2 34/26/2 
s 4
f 38/29/3 39/26/3 40/27/3 
f 40/27/3 41/28/3 38/29/3 
s 8
f 34/29/4 37/26/4 39/27/4 
f 39/27/4 38/28/4 34/29/4 
s 16
f 37/29/5 36/26/5 40/27/5 
f 40/27/5 39/28/5 37/29/5 
s 32
f 36/29/6 35/26/6 41/27/6 
f 41/27/6 40/28/6 36/29/6 
s 64
f 35/29/7 34/26/7 38/27/7 
f 38/27/7 41/28/7 35/29/7 
s 2
f 42/26/2 43/27/2 44/28/2 
f 44/28/2 45/29/2 42/26/2 
s 4
f 46/29/3 47/26/3 48/27/3 
f 48/27/3 49/28/3 46/29/3 
s 8
f 42/29/4 45/26/4 47/27/4 
f 47/27/4 46/28/4 42/29/4 
s 16
f 45/29/5 44/26/5 48/27/5 
f 48/27/5 47/28/5 45/29/5 
s 32
f 44/29/6 43/26/6 49/27/6 
f 49/27/6 48/28/6 44/29/6 
s 64
f 43/29/7 42/26/7 46/27/7 
f 46/27/7 49/28/7 43/29/7 
s 2
f 50/26/7 51/27/7 52/28/7 
f 52/28/7 53/29/7 50/26/7 
s 4
f 54/29/5 55/26/5 56/27/5 
f 56/27/5 57/28/5 54/29/5 
s 8
f 50/29/4 53/26/4 55/27/4 
f 55/27/4 54/28/4 50/29/4 
s 16
f 53/29/8 52/26/8 56/27/8 
f 56/27/8 55/28/8 53/29/8 
s 32
f 52/29/6 51/26/6 57/27/6 
f 57/27/6 56/28/6 52/29/6 
s 64
f 51/29/9 50/26/9 54/27/9 
f 54/27/9 57/28/9 51/29/9 
s 2
f 58/26/10 59/27/10 60/28/10 
f 60/28/10 61/29/10 58/26/10 
s 4
f 62/29/5 63/26/5 64/27/5 
f 64/27/5 65/28/5 62/29/5 
s 8
f 58/29/4 61/26/4 63/27/4 
f 63/27/4 62/28/4 58/29/4 
s 16
f 61/29/2 60/26/2 64/27/2 
f 64/27/2 63/28/2 61/29/2 
s 32
f 60/29/6 59/26/6 65/27/6 
f 65/27/6 64/28/6 60/29/6 
s 64
f 59/29/3 58/26/3 62/27/3 
f 62/27/3 65/28/3 59/29/3 
usemtl 02___Default
s 1
f 66/29/11 67/30/4 68/31/4 
f 68/31/4 69/32/11 66/29/11 
f 67/30/4 70/33/4 71/34/4 
f 71/34/4 68/31/4 67/30/4 
f 70/33/4 72/35/11 73/36/4 
f 73/36/4 71/34/4 70/33/4 
f 72/35/11 74/26/4 75/37/11 
f 75/37/11 73/36/4 72/35/11 
f 69/32/11 68/31/4 76/38/4 
f 76/38/4 77/39/4 69/32/11 
f 68/31/4 71/34/4 78/40/4 
f 78/40/4 76/38/4 68/31/4 
f 71/34/4 73/36/4 79/41/4 
f 79/41/4 78/40/4 71/34/4 
f 73/36/4 75/37/11 80/42/11 
f 80/42/11 79/41/4 73/36/4 
f 77/39/4 76/38/4 81/43/11 
f 81/43/11 82/44/4 77/39/4 
f 76/38/4 78/40/4 83/45/11 
f 83/45/11 81/43/11 76/38/4 
f 78/40/4 79/41/4 84/46/4 
f 84/46/4 83/45/11 78/40/4 
f 79/41/4 80/42/11 85/47/4 
f 85/47/4 84/46/4 79/41/4 
f 82/44/4 81/43/11 86/48/11 
f 86/48/11 87/28/4 82/44/4 
f 81/43/11 83/45/11 88/49/11 
f 88/49/11 86/48/11 81/43/11 
f 83/45/11 84/46/4 89/50/4 
f 89/50/4 88/49/11 83/45/11 
f 84/46/4 85/47/4 90/27/4 
f 90/27/4 89/50/4 84/46/4 
# 92 faces

